<?xml version="1.0" encoding="utf-8"?>
<!-- Generator: Adobe Illustrator 22.1.0, SVG Export Plug-In . SVG Version: 6.00 Build 0)  -->
<svg version="1.1" id="Layer_1" xmlns="http://www.w3.org/2000/svg" xmlns:xlink="http://www.w3.org/1999/xlink" x="0px" y="0px"
	 viewBox="0 0 136 28" style="enable-background:new 0 0 136 28;" xml:space="preserve">
<style type="text/css">
	.st0{fill:#B48B3C;}
	.st1{fill:#2D3C41;}
	.st2{fill:#FFFFFF;}
	.st3{fill:#F9F9F9;}
</style>
<path class="st0" d="M14,24.4c-6.1,0-11-4.9-11-11s4.9-11,11-11s11,4.9,11,11C25,19.4,20.1,24.4,14,24.4z"/>
<path d="M14,20.7c-4,0-7.3-3.3-7.3-7.3S10,6.1,14,6.1s7.3,3.3,7.3,7.3S18,20.7,14,20.7z"/>
<path class="st0" d="M19.7,13.4c0,3.2-2.6,5.7-5.7,5.7c-3.2,0-5.7-2.6-5.7-5.7c0-3.2,2.6-5.7,5.7-5.7C17.2,7.6,19.7,10.2,19.7,13.4z
	"/>
<g>
	<path d="M10.3,15.4c-0.3,0-0.5-0.2-0.6-0.4c-0.2-0.5-0.3-1.1-0.3-1.7c0-2.5,2.1-4.6,4.6-4.6c0.4,0,0.7,0.3,0.7,0.7
		s-0.3,0.7-0.7,0.7c-1.8,0-3.3,1.5-3.3,3.3c0,0.4,0.1,0.8,0.2,1.2c0.1,0.3,0,0.7-0.4,0.9C10.5,15.4,10.4,15.4,10.3,15.4z"/>
</g>
<g>
	<path class="st1" d="M128,603.4c0,17.9-14.5,32.4-32.4,32.4s-32.4-14.5-32.4-32.4S77.7,571,95.6,571S128,585.5,128,603.4z"/>
	<g>
		<path class="st2" d="M105.8,584.6c0.7,1.2,1.2,2.5,1.6,3.8c0.4,1.1,0.7,2.3,0.9,3.6c0.4,2.4,0.3,4.4,0.2,5.5
			c0,0.5-0.1,0.9-0.1,1.2l-0.1,0.4c0.1,0.2,0.1,0.4,0.2,0.6c0.3,1.2,0.5,2.4,0.5,3.6c0,4.7-2.4,8.8-6,11.2c0.9-0.1,2.1-0.2,3.4-0.5
			c0.6-0.1,1.2-0.3,1.7-0.5h0.1c0.4-0.1,0.7-0.2,1-0.4c1.1-0.4,2.2-1,3.3-1.7c2.2-1.3,4.3-3.2,5.9-5.4s2.8-4.6,3.5-7.1
			c0.3-1.2,0.5-2.4,0.7-3.6c0.1-1.1,0.1-2.2,0-3.2c0-1.3-0.2-2.4-0.5-3.3c-5.1-9.5-15.2-16-26.8-16c-1,0-1.9,0.1-2.9,0.2
			c2.7,1,5.3,2.5,7.4,4.3C102.4,579.5,104.4,581.9,105.8,584.6z"/>
		<path class="st2" d="M77,593.1c1.2-0.7,2.5-1.2,3.8-1.6c1.1-0.4,2.3-0.7,3.6-0.9c1.3-0.2,2.6-0.3,3.9-0.3c0.6,0,1.2,0,1.7,0.1
			c0.5,0,0.9,0.1,1.2,0.1h0.3c0.2-0.1,0.3-0.1,0.5-0.2c1.1-0.3,2.3-0.5,3.6-0.5c4.8,0,9,2.5,11.4,6.3c0-1-0.2-2.3-0.5-3.8
			c-0.1-0.6-0.3-1.1-0.4-1.7c-0.1-0.4-0.2-0.8-0.4-1.2c-0.4-1.1-1-2.2-1.7-3.3c-1.3-2.2-3.2-4.3-5.4-5.9c-0.5-0.4-1-0.7-1.5-1
			c-2.7-1.5-5.7-2.5-8.5-3.1c-0.2,0-0.4-0.1-0.6-0.1c-1.1-0.1-2.2-0.1-3.2,0c-1.4,0.1-2.6,0.3-3.6,0.5c-9.5,5.1-15.9,15.2-15.9,26.7
			c0,1.1,0.1,2.2,0.2,3.3c1-2.8,2.5-5.6,4.5-7.8C71.9,596.5,74.3,594.6,77,593.1z"/>
		<path class="st2" d="M85.5,622c-0.7-1.2-1.2-2.5-1.6-3.8c-0.4-1.1-0.7-2.3-0.9-3.6c-0.4-2.4-0.3-4.4-0.2-5.5
			c0-0.4,0.1-0.8,0.1-1.1c-0.1-0.2-0.2-0.5-0.3-0.7c-0.4-1.2-0.5-2.5-0.5-3.8c0-4.8,2.5-9,6.3-11.4c-1,0.1-2.2,0.2-3.6,0.5
			c-0.6,0.1-1.2,0.3-1.7,0.4c-0.2,0.1-0.4,0.1-0.7,0.2c-0.2,0.1-0.3,0.1-0.5,0.2c-1.1,0.4-2.2,1-3.3,1.7c-2.2,1.3-4.3,3.2-5.9,5.4
			s-2.8,4.7-3.5,7.1c-0.3,1.2-0.5,2.4-0.6,3.6c-0.1,1.1-0.1,2.2,0,3.2c0.1,1.8,0.4,3.2,0.7,4.3c5.2,9.1,15.1,15.2,26.3,15.2
			c1.2,0,2.3-0.1,3.5-0.2c-2.8-1-5.5-2.5-7.8-4.5C88.9,627.1,86.9,624.6,85.5,622z"/>
		<path class="st2" d="M125.7,600.3c-1,2.7-2.5,5.2-4.3,7.4c-2,2.3-4.4,4.3-7.1,5.7c-1.2,0.7-2.5,1.2-3.8,1.6
			c-1.1,0.4-2.3,0.7-3.6,0.9c-1.3,0.2-2.6,0.3-3.9,0.3c-0.6,0-1.2,0-1.7-0.1c-0.5,0-0.9-0.1-1.2-0.1c-0.3,0.1-0.5,0.2-0.8,0.3
			c-1.2,0.4-2.5,0.6-3.8,0.6c-4.7,0-8.8-2.4-11.2-6c0.1,0.9,0.2,2,0.5,3.2c0.2,1.1,0.5,2,0.9,2.9c0.4,1.1,1,2.2,1.6,3.3
			c1.3,2.2,3.2,4.3,5.4,5.9c2.2,1.6,4.6,2.8,7.1,3.5c1.2,0.3,2.4,0.5,3.6,0.7c1.1,0.1,2.2,0.1,3.2,0c1.6-0.1,3-0.4,4-0.6
			c9.2-5.2,15.3-15.1,15.3-26.4C125.9,602.4,125.8,601.3,125.7,600.3z"/>
	</g>
	<path class="st2" d="M105.6,603.4c0,5.5-4.5,10-10,10s-10-4.5-10-10s4.5-10,10-10S105.6,597.9,105.6,603.4z"/>
	<g>
		<path class="st1" d="M95.6,629.7c-14.5,0-26.3-11.8-26.3-26.3s11.8-26.3,26.3-26.3s26.3,11.8,26.3,26.3
			C121.9,617.9,110.1,629.7,95.6,629.7z"/>
		<path class="st2" d="M95.6,620.8c-9.6,0-17.4-7.8-17.4-17.4c0-9.6,7.8-17.4,17.4-17.4s17.4,7.8,17.4,17.4S105.2,620.8,95.6,620.8z
			"/>
		<path class="st1" d="M109.3,603.4c0,7.6-6.1,13.7-13.7,13.7s-13.7-6.1-13.7-13.7c0-7.6,6.1-13.7,13.7-13.7
			C103.2,589.7,109.3,595.8,109.3,603.4z"/>
		<g>
			<path class="st2" d="M86.8,608.3c-0.6,0-1.3-0.4-1.5-1c-0.5-1.3-0.7-2.6-0.7-4c0-6.1,4.9-11,11-11c0.9,0,1.6,0.7,1.6,1.6
				c0,0.9-0.7,1.6-1.6,1.6c-4.3,0-7.8,3.5-7.8,7.8c0,1,0.2,1.9,0.5,2.8c0.3,0.8-0.1,1.8-0.9,2.1C87.2,608.2,87,608.3,86.8,608.3z"/>
		</g>
	</g>
</g>
<g>
	<path class="st3" d="M27.8,20.9c0.1,0.1,0.1,0.2-0.1,0.3c-0.1,0.1-0.3,0.1-0.6,0.1s-0.5,0-0.7-0.1c-0.3-0.1-0.5-0.1-0.6-0.3
		c-0.4-0.4-0.7-0.8-0.8-1.3c-0.1-0.3-0.2-0.7-0.2-1c0-0.4,0-0.7,0.1-1s0.2-0.6,0.3-0.9c0.1-0.3,0.3-0.5,0.4-0.6l0,0
		c0.7-0.8,1.5-1.5,2.4-2c1-0.5,2-1,3.2-1.3c0.2-0.7,0.4-1.4,0.6-2.1s0.5-1.4,0.7-2c0.1-0.4,0.3-0.8,0.4-1.2c0.1-0.4,0.3-0.8,0.4-1.2
		c-0.6,0.1-1.1,0.2-1.7,0.3C31,6.7,30.5,6.8,30,6.9c-0.6,0.2-1.3,0.4-2.1,0.7c-0.8,0.3-1.5,0.7-2.2,1.1c-0.7,0.4-1.2,0.9-1.6,1.4
		s-0.5,1-0.3,1.6c0.1,0.4,0.4,0.7,0.7,1.1c0.4,0.4,1,0.7,1.8,1.2l0.1,0.1c0.1,0.2,0.1,0.3-0.1,0.4c-0.2,0.1-0.5,0.2-0.9,0.2
		s-0.9-0.1-1.5-0.2c-0.6-0.1-1.1-0.3-1.6-0.6c-0.3-0.3-0.6-0.6-0.8-0.9c-0.2-0.3-0.4-0.6-0.5-1c-0.1-0.2-0.1-0.5-0.2-0.7
		c0-0.3,0-0.5,0-0.8c0-1,0.4-1.9,1.1-2.7c0.7-0.7,1.7-1.4,2.9-1.9c1.2-0.5,2.5-1,4.1-1.4c1.5-0.4,3.1-0.7,4.7-0.9
		c1.6-0.2,3.2-0.4,4.8-0.6c1.6-0.1,3-0.3,4.3-0.4C44,2.3,45,2.2,45.9,2.1c0.9-0.1,1.5-0.2,2-0.4C48,2,48.1,2.3,48.2,2.6
		c0.1,0.4,0.1,0.7,0.1,1s0,0.6-0.1,0.9C48.1,4.9,48,5,47.8,5l-3.5,0.2c-1.6,0.1-3.1,0.2-4.7,0.4c-1.6,0.1-3.1,0.3-4.7,0.5
		c0.2,0.1,0.5,0.3,0.7,0.4s0.5,0.3,0.7,0.4c0.2,0.2,0.4,0.3,0.5,0.4C37,7.5,37,7.6,37,7.6c-0.1,0.7-0.3,1.4-0.6,2.1
		c-0.2,0.7-0.5,1.4-0.8,2c0.8-0.1,1.6-0.3,2.4-0.4c0.8-0.1,1.6-0.2,2.4-0.3c0.7-0.1,1.4-0.2,2.1-0.3c0.7-0.1,1.4-0.2,2-0.3
		c0.2,0,0.3,0.2,0.3,0.4c0,0.3,0,0.5-0.1,0.8s-0.2,0.6-0.3,0.8c-0.1,0.3-0.2,0.4-0.4,0.4l-1.2,0.1c-1.2,0.1-2.5,0.2-3.9,0.3
		s-2.8,0.3-4.2,0.6c-0.2,0.5-0.4,1.1-0.6,1.6c-0.2,0.5-0.3,1.1-0.4,1.7c-0.1,0.6-0.1,1.2-0.1,1.8c0,0.6,0.1,1.2,0.2,1.9
		c0.1,0.6,0.5,1,1.1,1.2s1.3,0.3,2.1,0.3c0.6,0,1.3,0,1.9-0.1c0.7-0.1,1.3-0.2,2-0.4c0.6-0.2,1.2-0.3,1.7-0.5s1-0.4,1.3-0.5l0,0
		c0.3-0.2,0.5-0.2,0.7,0s0.4,0.5,0.5,0.9s0.2,0.7,0.2,1.1s-0.2,0.6-0.4,0.8c-0.7,0.3-1.6,0.6-2.8,0.8s-2.3,0.3-3.5,0.3
		c-0.8,0-1.7-0.1-2.5-0.2s-1.6-0.3-2.3-0.6c-0.7-0.3-1.3-0.6-1.8-1.1c-0.5-0.4-0.9-1-1.1-1.7C30.6,20,30.4,19,30.4,18
		s0.1-2.1,0.2-3.1c-0.7,0.3-1.4,0.6-2,1s-1.1,0.8-1.6,1.2c-0.2,0.2-0.3,0.5-0.5,1c-0.2,0.4-0.1,0.9,0,1.4c0.1,0.4,0.4,0.8,0.9,1.1
		L27.8,20.9z"/>
	<path class="st3" d="M57.1,18.7c-0.2,0.4-0.5,0.9-0.9,1.3c-0.3,0.4-0.7,0.9-1.2,1.2c-0.4,0.4-1,0.7-1.5,0.9
		c-0.6,0.2-1.2,0.3-1.9,0.3c-0.8,0-1.4-0.3-1.9-0.7c-0.5-0.4-0.8-0.9-1-1.4c-0.1-0.4-0.1-0.8-0.1-1.1c0-0.4,0.1-0.7,0.2-1.1
		c0.1-0.3,0.3-0.7,0.4-1c0.2-0.3,0.3-0.6,0.5-1c0-0.1,0.1-0.2,0.1-0.3c0.1-0.1,0.1-0.2,0.2-0.3l0.4-0.7c0.1-0.2,0.3-0.5,0.4-0.6
		c0.2-0.2,0.4-0.3,0.7-0.3c-0.4,0.1-0.8,0.1-1,0.2c-0.2,0-0.4,0.1-0.6,0.1c-0.2,0-0.5,0-0.8,0h-0.3c-0.3,0.5-0.5,0.9-0.7,1.3
		c-0.2,0.4-0.4,0.8-0.6,1.2c-0.1,0.1-0.2,0.1-0.3,0.1s-0.3-0.1-0.5-0.1s-0.3-0.2-0.4-0.3c-0.1-0.1-0.1-0.2-0.1-0.3l0,0l0.5-1.2
		c0.1-0.2,0.2-0.4,0.3-0.6c0.1-0.2,0.2-0.4,0.3-0.6c-0.2-0.2-0.4-0.4-0.4-0.7c-0.1-0.4-0.1-0.8,0-1.3c0.2-0.5,0.3-0.9,0.5-1.3
		c0.1-0.2,0.1-0.4,0.2-0.6c0.1-0.2,0.1-0.4,0.1-0.6c0.5,0.2,1,0.4,1.5,0.6c0.5,0.3,0.8,0.6,1,1c0.1,0.2,0.1,0.5,0,0.8L49.6,13h0.1
		l-0.2,0.3c0,0,0.1,0,0.3,0c0.2-0.1,0.4-0.2,0.7-0.3s0.6-0.3,0.9-0.4c0.3-0.2,0.6-0.3,0.9-0.5c0.3-0.2,0.6-0.3,0.8-0.4
		c0.2-0.1,0.4-0.3,0.4-0.3c0.1,0,0.2,0,0.4,0.1s0.3,0.1,0.5,0.2c0.2,0.1,0.3,0.2,0.5,0.3c0.1,0.1,0.2,0.1,0.3,0.1
		c0.2,0.2,0.3,0.4,0.4,0.7c0,0.3-0.1,0.6-0.2,0.9c-0.1,0.3-0.3,0.7-0.6,1.1c-0.2,0.4-0.5,0.8-0.8,1.2l-0.9,1.4
		c-0.1,0.2-0.3,0.4-0.4,0.6c-0.1,0.2-0.3,0.5-0.4,0.7c-0.1,0.3-0.2,0.5-0.2,0.7c-0.1,0.2-0.1,0.4,0,0.6s0.2,0.3,0.6,0.3
		c0.2,0,0.4-0.1,0.7-0.2s0.5-0.3,0.8-0.5s0.5-0.5,0.8-0.7s0.5-0.6,0.6-0.9c0.2-0.4,0.4-0.8,0.6-1.2c0.2-0.4,0.3-0.8,0.4-1
		c0-0.1,0.1-0.1,0.3-0.1s0.3,0.1,0.5,0.2s0.3,0.2,0.4,0.3c0.1,0.1,0.2,0.2,0.1,0.3l0,0l-0.4,1c-0.1,0.2-0.2,0.5-0.3,0.7
		S57.2,18.6,57.1,18.7z"/>
	<path class="st3" d="M57.8,11.3c0.2-0.1,0.4-0.1,0.8,0c0.3,0.1,0.7,0.2,1,0.4s0.6,0.4,0.9,0.7c0.3,0.3,0.4,0.5,0.4,0.8l-0.5,1.5
		c-0.2,0.5-0.4,1.1-0.7,1.8c-0.2,0.7-0.5,1.3-0.6,1.9C59,19,58.9,19.5,58.8,20c0,0.4,0.1,0.6,0.3,0.6h0.3c0.5-0.1,0.9-0.4,1.3-0.6
		c0.4-0.3,0.7-0.6,1-1s0.6-0.8,0.8-1.2c0.2-0.4,0.5-0.8,0.7-1.2l0.2-0.4c0.1-0.1,0.2-0.1,0.3-0.1c0.2,0,0.3,0.1,0.5,0.1
		c0.2,0.1,0.3,0.2,0.4,0.3c0.1,0.1,0.1,0.2,0.1,0.3c-0.5,0.9-1,1.8-1.5,2.6c-0.5,0.8-1.2,1.5-2.1,2.2c-0.1,0.1-0.2,0.2-0.4,0.3
		c-0.2,0.1-0.4,0.2-0.6,0.3c-0.2,0.1-0.5,0.2-0.8,0.3c-0.3,0.1-0.6,0.1-0.9,0.1c-0.6,0-1.1-0.2-1.5-0.5s-0.7-0.8-0.9-1.3
		c0-0.5,0-0.9,0-1.4l0,0c0-0.6,0.1-1.3,0.3-2.1c0.2-0.8,0.4-1.7,0.6-2.6c0.2-0.6,0.3-1.2,0.5-1.8c0.1-0.6,0.2-1,0.3-1.4L57.8,11.3z
		 M58.5,5.5c0.2,0,0.4,0.1,0.8,0.3C59.7,6,60,6.2,60.4,6.4c0.4,0.2,0.7,0.5,1,0.8s0.4,0.4,0.5,0.5c0,0.3,0,0.6-0.1,0.8
		c-0.1,0.3-0.2,0.6-0.3,0.9c-0.1,0.3-0.2,0.6-0.3,0.9c-0.1,0.3-0.1,0.6-0.1,1c-0.2,0-0.4-0.1-0.7-0.2s-0.5-0.3-0.8-0.5
		s-0.5-0.3-0.7-0.5s-0.3-0.3-0.3-0.5c-0.1-0.3-0.1-0.6-0.1-0.9c0-0.3,0-0.6,0-0.9c0-0.4,0-0.7,0-1.1s-0.1-0.7-0.1-1L58.5,5.5z
		 M60.9,13.5v-0.1v-0.1C61,13.2,61,13.2,60.9,13.5z"/>
	<path class="st3" d="M75.6,17.1c-0.3,0.6-0.6,1.2-1,1.9c-0.4,0.7-0.9,1.4-1.5,2c-0.4,0.3-0.8,0.6-1.3,0.8c-0.4,0.2-0.9,0.3-1.3,0.4
		s-0.8,0.1-1.2,0.2c-0.4,0-0.6,0-0.8,0c-1.3,0-2.4-0.3-3.3-0.8s-1.5-1.3-1.9-2.2c-0.3-0.8-0.4-1.7-0.3-2.5c0.1-0.8,0.5-1.7,1.1-2.7
		c0.2-0.3,0.5-0.7,0.8-1c0.4-0.4,0.8-0.7,1.3-1s1.1-0.6,1.7-0.8s1.3-0.3,1.9-0.3c0.7,0,1.3,0.2,1.7,0.5c0.5,0.3,0.8,0.7,1,1.2
		c0.2,0.4,0.1,0.9-0.1,1.5c-0.1,0.1-0.2,0.2-0.4,0.2c-0.2,0-0.3,0-0.4-0.1s-0.3-0.1-0.4-0.3C71.1,14,71,13.8,71,13.7
		c0.1-0.1,0.1-0.3,0.1-0.4c0-0.1,0-0.2-0.1-0.3c-0.1-0.3-0.3-0.4-0.7-0.3c-0.7,0.1-1.2,0.4-1.7,0.8c-0.5,0.4-0.9,0.9-1.2,1.4
		s-0.6,1.1-0.7,1.6c-0.2,0.6-0.2,1.1-0.2,1.5c0,0.2,0,0.5,0.1,0.8c0.1,0.4,0.4,0.8,0.7,1.2c0.3,0.4,0.8,0.6,1.3,0.7
		c0.4,0.1,0.8,0,1.2-0.1c0.4-0.1,0.9-0.3,1.3-0.5c0.4-0.3,0.9-0.6,1.3-1s0.8-0.9,1.1-1.6c0.2-0.4,0.4-0.7,0.5-1s0.3-0.6,0.4-0.9
		c0.1-0.1,0.2-0.2,0.4-0.2c0.2,0,0.3,0,0.5,0.1s0.3,0.2,0.4,0.3s0.1,0.3,0,0.5L75.6,17.1z"/>
	<path class="st3" d="M83,24c-0.2-0.1-0.3-0.2-0.3-0.3c-0.1-0.1-0.1-0.2-0.1-0.3c0-0.1,0.1-0.2,0.2-0.3c0.1-0.1,0.3-0.1,0.4,0
		l0.3-0.1c0-0.1,0-0.1,0-0.2c0.5-0.8,1-1.8,1.6-2.9s1.2-2.3,1.7-3.6c0.6-1.3,1.1-2.5,1.6-3.8s0.9-2.5,1.2-3.7
		c0.3-1.2,0.5-2.2,0.5-3.2c0.1-1,0-1.7-0.3-2.3V3.2c0-0.1,0.1-0.1,0.3-0.1c0.2,0,0.4,0.1,0.7,0.2c0.3,0.1,0.6,0.2,0.9,0.4
		C92,3.9,92.3,4,92.6,4.2c0.3,0.2,0.5,0.3,0.8,0.5c0.2,0.1,0.3,0.3,0.4,0.4c0.1,0.5,0.1,1.1-0.1,1.9s-0.4,1.8-0.8,2.8
		s-0.8,2.2-1.3,3.3c-0.5,1.2-1.1,2.3-1.7,3.5s-1.3,2.3-2,3.3c-0.7,1.1-1.4,2-2.1,2.8h0.1c0.9,0,1.8,0,2.9,0.1c1,0.1,2.1,0.2,3.3,0.4
		c1.4,0.2,2.8,0.3,4.3,0.4s2.9,0.2,4.4,0.2c1.3,0,2.5-0.1,3.6-0.2c1.1-0.2,2.2-0.4,3.2-0.8c0.2,0,0.3,0.1,0.4,0.3
		c0.1,0.2,0.1,0.4,0.2,0.7c0,0.3,0,0.5,0,0.7s-0.1,0.4-0.2,0.4h0.1c-0.6,0.5-1.3,0.8-2.2,1c-0.9,0.2-1.9,0.3-3,0.3
		c-1.5,0-3.1-0.1-4.9-0.4c-1.7-0.2-3.5-0.5-5.2-0.8c-1.6-0.3-3.1-0.5-4.5-0.7S85.6,24,84.6,24c-0.2,0-0.4,0-0.5,0s-0.3,0-0.5,0H83z"
		/>
	<path class="st3" d="M103,11.2c0.8,0.1,1.5,0.3,2,0.7s0.9,0.9,1.2,1.4c0.4,0.3,0.8,0.8,1.2,1.4l0.2,0.6c0.3,0.8,0.3,1.6,0.2,2.5
		c-0.1,0.8-0.4,1.6-0.9,2.3c-0.5,0.7-1.1,1.2-1.8,1.7c-0.7,0.4-1.6,0.6-2.5,0.6c-1.1,0-2.1-0.3-3.1-0.8s-1.8-1.3-2.4-2.4l0,0
		c-0.1-0.1-0.2-0.3-0.2-0.4c-0.1-0.2-0.1-0.3-0.2-0.5c-0.3-0.8-0.3-1.6-0.1-2.5c0.2-0.9,0.6-1.6,1.2-2.3s1.3-1.3,2.2-1.7
		C100.9,11.3,101.9,11.2,103,11.2z M104,16c-0.1,0-0.2-0.1-0.3-0.3c-0.1-0.1-0.2-0.3-0.3-0.4c-0.1-0.2-0.1-0.3-0.2-0.5
		s-0.1-0.3-0.1-0.5s0-0.3,0.1-0.5c0.1-0.1,0.2-0.3,0.3-0.4c0.1-0.1,0.3-0.2,0.4-0.3s0.2-0.1,0.3-0.2l0.1-0.1h0.1
		c-0.1-0.1-0.2-0.1-0.4-0.2c-0.1,0-0.3-0.1-0.6,0c-0.4,0-0.7,0.2-1.2,0.4c-0.4,0.2-0.8,0.5-1.1,0.8c-0.3,0.3-0.5,0.7-0.7,1.1
		c-0.2,0.4-0.3,0.8-0.4,1.3c-0.1,0.4-0.1,0.9-0.1,1.3s0.1,0.8,0.2,1.2c0.2,0.5,0.5,0.9,0.9,1.3s0.9,0.6,1.6,0.6s1.2-0.1,1.7-0.5
		s0.9-0.9,1.2-1.5c0.3-0.6,0.5-1.2,0.6-1.9c0.1-0.7,0-1.3-0.2-1.9c0-0.1,0-0.1-0.1-0.2l-0.1-0.1c-0.2,0-0.3,0-0.5,0.1
		s-0.3,0.2-0.4,0.3s-0.2,0.3-0.3,0.4c-0.1,0.1-0.1,0.3-0.1,0.4L104,16z"/>
	<path class="st3" d="M117.2,11.3c0.2-0.1,0.5-0.1,0.8,0.1c0.4,0.1,0.8,0.3,1.2,0.5c0.4,0.2,0.7,0.5,1,0.7c0.3,0.3,0.4,0.6,0.4,0.8
		c0,0.1-0.1,0.4-0.1,0.7c-0.1,0.3-0.1,0.7-0.3,1c-0.1,0.5-0.3,1.1-0.4,1.7s-0.3,1.2-0.4,1.8c-0.1,0.6-0.2,1-0.3,1.4s-0.1,0.6,0,0.7
		c0.3-0.1,0.6-0.3,1.1-0.7c0.4-0.4,0.9-0.9,1.4-1.5s0.9-1.3,1.4-2c0.5-0.7,0.9-1.4,1.2-2.1c0.4-0.7,0.6-1.3,0.8-1.8s0.3-1,0.2-1.2
		c0.1-0.1,0.2-0.1,0.4,0.1c0.2,0.1,0.4,0.3,0.7,0.6c0.2,0.2,0.4,0.5,0.6,0.7s0.2,0.4,0.2,0.6c-0.2,0.4-0.5,1-0.9,1.6s-0.7,1.3-1.2,2
		c-0.4,0.7-0.9,1.4-1.4,2c-0.5,0.7-1.1,1.3-1.7,1.8s-1.2,1-1.8,1.3s-1.3,0.5-2,0.5c-0.5,0-0.9-0.1-1.3-0.4s-0.7-0.7-0.9-1.2
		c-0.1-0.3-0.1-0.5-0.1-0.8c-0.3,0.5-0.7,1-1.1,1.3c-0.1,0.1-0.2,0.2-0.4,0.3c-0.2,0.1-0.4,0.2-0.6,0.3c-0.2,0.1-0.5,0.2-0.8,0.3
		c-0.3,0.1-0.6,0.1-0.9,0.1c-0.7,0-1.3-0.2-1.7-0.6c-0.5-0.4-0.8-0.9-1-1.5c0-0.1-0.1-0.3-0.1-0.4s-0.1-0.3-0.1-0.5
		c-0.1-0.5,0-1.2,0.1-2s0.2-1.6,0.3-2.5c0.1-0.6,0.2-1.2,0.2-1.8c0.1-0.6,0.1-1.1,0.1-1.6l0.1-0.2c0.2-0.1,0.5-0.1,0.8,0.1
		c0.4,0.1,0.8,0.3,1.2,0.5c0.4,0.2,0.7,0.5,1,0.7c0.3,0.3,0.4,0.6,0.4,0.8c0,0.1-0.1,0.3-0.1,0.6c-0.1,0.2-0.1,0.5-0.2,0.7
		c-0.1,0.4-0.2,0.9-0.3,1.4c-0.1,0.5-0.2,1.1-0.3,1.6c-0.1,0.5-0.1,1-0.2,1.5c0,0.4,0,0.8,0.1,1.1c0.1,0.2,0.1,0.3,0.3,0.3h0.3
		c0.5-0.1,0.9-0.4,1.2-0.7c0.4-0.4,0.7-0.8,1-1.2c0.3-0.5,0.5-1,0.8-1.5c0.2-0.5,0.4-1,0.6-1.4l0,0c0-0.1,0.1-0.2,0.1-0.3
		c0.1-0.1,0.1-0.2,0.1-0.3s0.1-0.1,0.3,0s0.3,0.1,0.4,0.2c0.1,0.1,0.2,0.2,0.3,0.3c0.1,0.1,0.1,0.2,0.1,0.3l0,0l-0.6,1.5
		c-0.2,0.4-0.4,0.9-0.6,1.4s-0.4,0.9-0.7,1.4c0-0.1,0-0.2,0-0.3c0-0.1,0-0.2,0-0.3l0.5-2.7c0.1-0.5,0.2-1,0.3-1.5
		c0.1-0.5,0.2-1,0.3-1.5c0.1-0.5,0.1-0.9,0.2-1.4c0.1-0.4,0.1-0.8,0.1-1.2L117.2,11.3z"/>
	<path class="st3" d="M125.6,19.8c-0.2-0.5-0.2-1,0-1.5s0.4-0.9,0.8-1.2l0.3-0.7c0.3-0.6,0.6-1.2,0.9-1.8s0.6-1.2,1-1.7
		c0.1-0.1,0.1-0.2,0.2-0.3c0.1-0.1,0.1-0.2,0.2-0.3c0.2-0.4,0.4-0.7,0.7-1.1c0.2-0.4,0.7-0.8,1.2-1.3c0.3,0.1,0.6,0.2,1,0.4
		s0.8,0.3,1.1,0.5s0.6,0.4,0.7,0.6c0.2,0.2,0.1,0.4-0.1,0.5l0,0c-0.2,0.2-0.4,0.4-0.5,0.5s-0.2,0.3-0.3,0.5l-0.2,0.4
		c-0.2,0.5-0.3,0.9-0.3,1.5c0,0.5,0.1,1,0.3,1.5c0.1,0.3,0.2,0.6,0.3,0.8c0.1,0.3,0.2,0.6,0.4,0.8l0.4,1.2c0.2,0.5,0.3,1,0.2,1.5
		s-0.3,0.8-0.6,1.2c-0.3,0.3-0.7,0.6-1.2,0.7s-1.1,0.2-1.8,0.2c-1.4-0.1-2.5-0.4-3.3-0.9C126.4,21.1,125.8,20.5,125.6,19.8z
		 M129.6,16.2c-0.1-0.2-0.2-0.5-0.2-0.7s-0.1-0.4-0.1-0.7c-0.1,0.3-0.3,0.5-0.4,0.8c-0.1,0.3-0.3,0.6-0.4,0.9l-0.1,0.2l0.5,0.1
		c0.1,0.1,0.2,0.2,0.4,0.4c0.2,0.2,0.4,0.4,0.5,0.7c0.2,0.2,0.3,0.5,0.4,0.7c0.1,0.2,0.1,0.4,0,0.5c-0.2-0.1-0.4-0.2-0.7-0.3
		c-0.2-0.1-0.4-0.1-0.6-0.1c-0.5,0-0.9,0.1-1.2,0.3c-0.3,0.2-0.5,0.5-0.3,0.8c0,0.1,0.1,0.2,0.2,0.3c0.1,0.1,0.1,0.2,0.2,0.3
		c0.2,0.2,0.5,0.4,0.9,0.5c0.3,0.1,0.6,0.2,0.9,0.2c0.7,0,1.1-0.1,1.2-0.5c0.2-0.4,0.2-0.8,0-1.3c-0.1-0.2-0.2-0.5-0.3-0.7
		s-0.2-0.5-0.3-0.8s-0.3-0.5-0.4-0.8C129.8,16.8,129.6,16.5,129.6,16.2z"/>
</g>
</svg>
